<?xml version="1.0" encoding="utf-8"?>
<!-- Generator: Adobe Illustrator 25.2.0, SVG Export Plug-In . SVG Version: 6.00 Build 0)  -->
<svg version="1.1" id="Layer_1" xmlns="http://www.w3.org/2000/svg" xmlns:xlink="http://www.w3.org/1999/xlink" x="0px" y="0px"
	 viewBox="0 0 4535.43 3401.57" style="enable-background:new 0 0 4535.43 3401.57;" xml:space="preserve">
<style type="text/css">
	.st0{fill:url(#SVGID_1_);}
	.st1{fill:url(#SVGID_2_);}
	.st2{fill:url(#SVGID_3_);}
	.st3{fill:url(#SVGID_4_);}
	.st4{fill:url(#SVGID_5_);}
	.st5{fill:url(#SVGID_6_);}
	.st6{fill:url(#SVGID_7_);}
	.st7{fill:url(#SVGID_8_);}
	.st8{fill:url(#SVGID_9_);}
	.st9{fill:url(#SVGID_10_);}
	.st10{fill:url(#SVGID_11_);}
	.st11{fill:url(#SVGID_12_);}
	.st12{fill:url(#SVGID_13_);}
</style>
<g>
	<linearGradient id="SVGID_1_" gradientUnits="userSpaceOnUse" x1="2066.7803" y1="1227.4932" x2="2285.1306" y2="1227.4932">
		<stop  offset="0" style="stop-color:#F9DF7C"/>
		<stop  offset="0.1065" style="stop-color:#DAB34A"/>
		<stop  offset="0.2036" style="stop-color:#C5952A"/>
		<stop  offset="0.2855" style="stop-color:#B98419"/>
		<stop  offset="0.3424" style="stop-color:#B57E11"/>
		<stop  offset="0.3765" style="stop-color:#BF8C21"/>
		<stop  offset="0.4551" style="stop-color:#D3A83E"/>
		<stop  offset="0.5378" style="stop-color:#E3C058"/>
		<stop  offset="0.6256" style="stop-color:#EFD16C"/>
		<stop  offset="0.7217" style="stop-color:#F7DB78"/>
		<stop  offset="0.8422" style="stop-color:#F9DF7C"/>
		<stop  offset="0.8727" style="stop-color:#F6DA77"/>
		<stop  offset="0.9048" style="stop-color:#EDCD68"/>
		<stop  offset="0.9376" style="stop-color:#DEB84F"/>
		<stop  offset="0.9706" style="stop-color:#CA9B31"/>
		<stop  offset="1" style="stop-color:#B57E11"/>
	</linearGradient>
	<path class="st0" d="M2066.78,1097.32c15.4-5.97,41.17-13.72,73.7-13.16c27.75,0.47,50.04,6.82,64.52,12.2
		c18.83,26.86,42.18,66.47,58.86,118.23c20.61,63.96,22.48,119.91,20.81,156.28c-11.58-37.78-35.2-98.11-84.46-159.33
		C2152.5,1152.26,2100.6,1116.82,2066.78,1097.32z"/>
	<linearGradient id="SVGID_2_" gradientUnits="userSpaceOnUse" x1="2013.6782" y1="1018.4089" x2="2635.3936" y2="1540.1279">
		<stop  offset="0.0129" style="stop-color:#656565"/>
		<stop  offset="0.2203" style="stop-color:#A3A2A2"/>
		<stop  offset="0.3039" style="stop-color:#979797"/>
		<stop  offset="0.4325" style="stop-color:#A9A9A9"/>
		<stop  offset="0.59" style="stop-color:#979797"/>
		<stop  offset="0.7154" style="stop-color:#656565"/>
		<stop  offset="0.9309" style="stop-color:#979797"/>
		<stop  offset="1" style="stop-color:#656565"/>
	</linearGradient>
	<path class="st1" d="M2729.32,1278.09c0.9,139-68.46,262.15-174.52,335.91l-0.06-0.06c-5.98-6.32-12.07-13.08-18.16-20.36
		c106.07-72.57,173.62-197.64,164.71-337.55c-12.18-191.16-168.32-344.59-359.65-353.62c-217.15-10.32-397.09,163.36-397.09,378.31
		c0,169.62,112.1,313.58,266.16,361.62c17.71,5.53,36.31-5.36,39.59-23.63c8.23-45.68,12.41-102.12,3.66-165.33
		c-28.31-204.41-170.18-325.76-209.26-357.06c46.92,26.95,130.37,84.02,191.84,187.49c30.34,51.09,47.14,99.58,56.78,137.87
		c1.24-70.04,10.71-155.07,39.3-247.49c8.51-27.46,17.93-53.12,27.86-76.91c8.06-2.09,18.16-4,29.77-4.51
		c15.96-0.73,29.44,1.3,39.36,3.55c-32.93,66.54-53.4,125.07-66.37,168.77c-19.34,65.13-58.59,202.21-37.27,373.07
		c0.28,2.2,0.56,4.34,0.85,6.43c2.88,22.05-14.72,41.62-36.94,40.32c-16.3-0.96-34.34-3.21-53.51-7.61
		c-153.04-34.96-319.05-190.76-319.05-396.58c0-223.24,181.12-404.99,404.14-406C2544.03,873.73,2727.86,1055.52,2729.32,1278.09z"
		/>
	<linearGradient id="SVGID_3_" gradientUnits="userSpaceOnUse" x1="2327.823" y1="1359.527" x2="2579.3208" y2="1359.527">
		<stop  offset="0" style="stop-color:#F9DF7C"/>
		<stop  offset="0.1065" style="stop-color:#DAB34A"/>
		<stop  offset="0.2036" style="stop-color:#C5952A"/>
		<stop  offset="0.2855" style="stop-color:#B98419"/>
		<stop  offset="0.3424" style="stop-color:#B57E11"/>
		<stop  offset="0.3765" style="stop-color:#BF8C21"/>
		<stop  offset="0.4551" style="stop-color:#D3A83E"/>
		<stop  offset="0.5378" style="stop-color:#E3C058"/>
		<stop  offset="0.6256" style="stop-color:#EFD16C"/>
		<stop  offset="0.7217" style="stop-color:#F7DB78"/>
		<stop  offset="0.8422" style="stop-color:#F9DF7C"/>
		<stop  offset="0.8727" style="stop-color:#F6DA77"/>
		<stop  offset="0.9048" style="stop-color:#EDCD68"/>
		<stop  offset="0.9376" style="stop-color:#DEB84F"/>
		<stop  offset="0.9706" style="stop-color:#CA9B31"/>
		<stop  offset="1" style="stop-color:#B57E11"/>
	</linearGradient>
	<path class="st2" d="M2448.79,1096.36c12.86-5.35,32.9-11.86,58.1-12.92c32.63-1.38,58.25,7.04,72.43,12.92
		c-38.58,30.56-82.92,71.6-121.9,127.54c-60.95,87.46-121.9,222.32-121.9,411.88c-8.51-61.67-13.63-150.43,4.8-254.35
		C2363.25,1252.2,2412.74,1155.1,2448.79,1096.36z"/>
	<linearGradient id="SVGID_4_" gradientUnits="userSpaceOnUse" x1="2380.9563" y1="1494.9081" x2="2601.9385" y2="1494.9081">
		<stop  offset="0" style="stop-color:#F9DF7C"/>
		<stop  offset="0.1065" style="stop-color:#DAB34A"/>
		<stop  offset="0.2036" style="stop-color:#C5952A"/>
		<stop  offset="0.2855" style="stop-color:#B98419"/>
		<stop  offset="0.3424" style="stop-color:#B57E11"/>
		<stop  offset="0.3765" style="stop-color:#BF8C21"/>
		<stop  offset="0.4551" style="stop-color:#D3A83E"/>
		<stop  offset="0.5378" style="stop-color:#E3C058"/>
		<stop  offset="0.6256" style="stop-color:#EFD16C"/>
		<stop  offset="0.7217" style="stop-color:#F7DB78"/>
		<stop  offset="0.8422" style="stop-color:#F9DF7C"/>
		<stop  offset="0.8727" style="stop-color:#F6DA77"/>
		<stop  offset="0.9048" style="stop-color:#EDCD68"/>
		<stop  offset="0.9376" style="stop-color:#DEB84F"/>
		<stop  offset="0.9706" style="stop-color:#CA9B31"/>
		<stop  offset="1" style="stop-color:#B57E11"/>
	</linearGradient>
	<path class="st3" d="M2601.94,1679.92h-96.71c-11.73-0.23-23.46-0.39-35.19-0.62c-3.16-5.58-6.26-11.11-9.19-16.52
		c-4.62-8.35-8.91-16.47-13.03-24.36c-18.78-36.31-32.48-67.61-42.29-92.08c-11.45-28.36-14.15-39.87-16.52-48.1
		c-12.52-43.19-10.32-89.32,5.7-131.33c0.56-1.58,1.18-3.16,1.75-4.68c6.94-18.04,13.98-35.53,21.15-52.33
		c-0.96,39.36,2.37,120.17,46.63,208.64c16.92,33.78,36.6,62.2,56.11,85.6c6.2,7.33,12.35,14.21,18.38,20.58
		C2563.03,1650.37,2585.87,1668.42,2601.94,1679.92z"/>
	<linearGradient id="SVGID_5_" gradientUnits="userSpaceOnUse" x1="2030.682" y1="1284.5055" x2="2579.7178" y2="1745.2347">
		<stop  offset="0.0129" style="stop-color:#656565"/>
		<stop  offset="0.2203" style="stop-color:#A3A2A2"/>
		<stop  offset="0.3039" style="stop-color:#979797"/>
		<stop  offset="0.4325" style="stop-color:#A9A9A9"/>
		<stop  offset="0.59" style="stop-color:#979797"/>
		<stop  offset="0.7154" style="stop-color:#656565"/>
		<stop  offset="0.9309" style="stop-color:#979797"/>
		<stop  offset="1" style="stop-color:#656565"/>
	</linearGradient>
	<path class="st4" d="M2381.12,1615.86c-13.48-68.4-14.38-129.98-10.55-180.22c-7.67,33.95-14.44,72.12-18.95,113.96
		c-3.33,30.87-7.03,65-5.98,109.23c0.25,10.57,0.71,19.24,1.07,24.96c6.63,0.35,14.06,0.38,22.14-0.18
		c10.63-0.74,20.07-2.34,28.11-4.2c-2.48-8.29-4.91-16.86-7.16-25.71C2386.59,1641.58,2383.71,1629,2381.12,1615.86z"/>
</g>
<g>
	<linearGradient id="SVGID_6_" gradientUnits="userSpaceOnUse" x1="818.4515" y1="1265.217" x2="2235.1182" y2="3527.717">
		<stop  offset="0" style="stop-color:#656565"/>
		<stop  offset="0.0691" style="stop-color:#979797"/>
		<stop  offset="0.2846" style="stop-color:#656565"/>
		<stop  offset="0.41" style="stop-color:#979797"/>
		<stop  offset="0.5675" style="stop-color:#A9A9A9"/>
		<stop  offset="0.6961" style="stop-color:#979797"/>
		<stop  offset="0.7797" style="stop-color:#A3A2A2"/>
		<stop  offset="0.9871" style="stop-color:#656565"/>
	</linearGradient>
	<path class="st5" d="M1314.34,2338.78v-143.55l-103.73-181.52h37.04l101.41,172.72l31.95-51.4c11.42-18.52,20.14-34.88,26.16-49.08
		c6.02-14.2,9.88-25.24,11.58-33.11c1.69-7.87,4.24-20.91,7.64-39.13h37.04l-112.06,181.52v143.55H1314.34z"/>
	<linearGradient id="SVGID_7_" gradientUnits="userSpaceOnUse" x1="975.787" y1="1166.7013" x2="2392.4536" y2="3429.2012">
		<stop  offset="0" style="stop-color:#656565"/>
		<stop  offset="0.0691" style="stop-color:#979797"/>
		<stop  offset="0.2846" style="stop-color:#656565"/>
		<stop  offset="0.41" style="stop-color:#979797"/>
		<stop  offset="0.5675" style="stop-color:#A9A9A9"/>
		<stop  offset="0.6961" style="stop-color:#979797"/>
		<stop  offset="0.7797" style="stop-color:#A3A2A2"/>
		<stop  offset="0.9871" style="stop-color:#656565"/>
	</linearGradient>
	<path class="st6" d="M1483.35,2338.78v-325.07h37.04v213.47l111.13-118.08c16.97-17.9,29.79-33.64,38.43-47.23
		c8.64-13.58,17.13-29.64,25.47-48.16h37.04l-90.76,95.85l107.43,229.21h-37.04l-95.85-202.82l-95.85,100.95v101.87H1483.35z"/>
	<linearGradient id="SVGID_8_" gradientUnits="userSpaceOnUse" x1="1268.441" y1="983.4557" x2="2685.1077" y2="3245.9556">
		<stop  offset="0" style="stop-color:#656565"/>
		<stop  offset="0.0691" style="stop-color:#979797"/>
		<stop  offset="0.2846" style="stop-color:#656565"/>
		<stop  offset="0.41" style="stop-color:#979797"/>
		<stop  offset="0.5675" style="stop-color:#A9A9A9"/>
		<stop  offset="0.6961" style="stop-color:#979797"/>
		<stop  offset="0.7797" style="stop-color:#A3A2A2"/>
		<stop  offset="0.9871" style="stop-color:#656565"/>
	</linearGradient>
	<path class="st7" d="M1913.07,2338.78v-325.07h122.71c44.14,0,78.72,13.12,103.73,39.36c25.01,26.24,37.51,65.29,37.51,117.16
		c0,38.28-6.95,70.08-20.84,95.39c-13.89,25.32-32.26,43.84-55.1,55.57c-22.85,11.74-48.01,17.6-75.48,17.6H1913.07z
		 M1992.72,2330.45c31.49,0.31,58.03-4.32,79.65-13.89c21.6-9.57,38.27-26.16,50.01-49.78c11.73-23.62,17.6-55.8,17.6-96.55
		c0-35.81-4.94-64.52-14.82-86.13c-9.88-21.6-25.32-37.43-46.31-47.46c-21-10.03-48.47-14.89-82.42-14.59l-46.31-2.78v314.88
		L1992.72,2330.45z"/>
	<linearGradient id="SVGID_9_" gradientUnits="userSpaceOnUse" x1="1495.2023" y1="841.4689" x2="2911.8689" y2="3103.969">
		<stop  offset="0" style="stop-color:#656565"/>
		<stop  offset="0.0691" style="stop-color:#979797"/>
		<stop  offset="0.2846" style="stop-color:#656565"/>
		<stop  offset="0.41" style="stop-color:#979797"/>
		<stop  offset="0.5675" style="stop-color:#A9A9A9"/>
		<stop  offset="0.6961" style="stop-color:#979797"/>
		<stop  offset="0.7797" style="stop-color:#A3A2A2"/>
		<stop  offset="0.9871" style="stop-color:#656565"/>
	</linearGradient>
	<path class="st8" d="M2215.44,2338.78v-325.07h231.07v37.04c-23.46-11.42-45.77-19.06-66.91-22.92
		c-21.15-3.86-42.37-5.94-63.67-6.25h-63.44v130.12h169.02v8.33h-169.02v170.41h59.27c29.33,0,56.65-2.39,81.96-7.18
		c25.31-4.78,45.22-11.96,59.73-21.53v37.04H2215.44z"/>
	<linearGradient id="SVGID_10_" gradientUnits="userSpaceOnUse" x1="1684.9297" y1="722.6708" x2="3101.5964" y2="2985.1709">
		<stop  offset="0" style="stop-color:#656565"/>
		<stop  offset="0.0691" style="stop-color:#979797"/>
		<stop  offset="0.2846" style="stop-color:#656565"/>
		<stop  offset="0.41" style="stop-color:#979797"/>
		<stop  offset="0.5675" style="stop-color:#A9A9A9"/>
		<stop  offset="0.6961" style="stop-color:#979797"/>
		<stop  offset="0.7797" style="stop-color:#A3A2A2"/>
		<stop  offset="0.9871" style="stop-color:#656565"/>
	</linearGradient>
	<path class="st9" d="M2478.45,2337.85v-37.04c17.29,9.88,37.74,18.14,61.36,24.77c23.62,6.64,45.76,9.96,66.45,9.96
		c27.78,0,50.47-5.01,68.07-15.05c17.6-10.03,26.39-25.7,26.39-47c0-15.12-5.25-28.63-15.74-40.52
		c-10.5-11.88-23.31-22.07-38.43-30.56c-15.13-8.49-35.5-18.59-61.12-30.33c-24.39-11.11-43.84-20.61-58.35-28.48
		c-14.51-7.87-26.71-17.29-36.58-28.25c-9.88-10.95-14.82-23.23-14.82-36.81c0-25.93,12.27-44.53,36.81-55.8
		c24.54-11.27,56.41-16.9,95.62-16.9c30.56,0,65.29,3.24,104.19,9.72v37.04c-18.22-11.11-39.67-20.14-64.37-27.09
		c-24.7-6.95-47.7-10.42-69-10.42c-22.23,0-40.13,3.63-53.72,10.88c-13.59,7.26-20.37,18.6-20.37,34.04
		c0,11.42,4.47,21.76,13.43,31.03c8.95,9.26,19.98,17.44,33.11,24.54c13.12,7.11,31.1,15.59,53.95,25.47
		c25.93,11.42,47,21.53,63.21,30.33s30.1,19.45,41.68,31.95s17.83,27.09,18.75,43.76c4.32,66.07-44.3,99.1-145.86,99.1
		C2557.79,2346.19,2522.91,2343.41,2478.45,2337.85z"/>
	<linearGradient id="SVGID_11_" gradientUnits="userSpaceOnUse" x1="1827.0037" y1="633.7111" x2="3243.6704" y2="2896.2112">
		<stop  offset="0" style="stop-color:#656565"/>
		<stop  offset="0.0691" style="stop-color:#979797"/>
		<stop  offset="0.2846" style="stop-color:#656565"/>
		<stop  offset="0.41" style="stop-color:#979797"/>
		<stop  offset="0.5675" style="stop-color:#A9A9A9"/>
		<stop  offset="0.6961" style="stop-color:#979797"/>
		<stop  offset="0.7797" style="stop-color:#A3A2A2"/>
		<stop  offset="0.9871" style="stop-color:#656565"/>
	</linearGradient>
	<rect x="2774.34" y="2013.71" class="st10" width="37.04" height="325.07"/>
	<linearGradient id="SVGID_12_" gradientUnits="userSpaceOnUse" x1="1996.5457" y1="527.5522" x2="3413.2124" y2="2790.0522">
		<stop  offset="0" style="stop-color:#656565"/>
		<stop  offset="0.0691" style="stop-color:#979797"/>
		<stop  offset="0.2846" style="stop-color:#656565"/>
		<stop  offset="0.41" style="stop-color:#979797"/>
		<stop  offset="0.5675" style="stop-color:#A9A9A9"/>
		<stop  offset="0.6961" style="stop-color:#979797"/>
		<stop  offset="0.7797" style="stop-color:#A3A2A2"/>
		<stop  offset="0.9871" style="stop-color:#656565"/>
	</linearGradient>
	<path class="st11" d="M2939.64,2326.28c-25.93-11.73-46.62-30.1-62.05-55.1c-15.44-25.01-23.15-56.65-23.15-94.93
		c0-60.2,17.75-104.11,53.25-131.74c35.5-27.62,81.34-41.44,137.53-41.44c30.56,0,61.43,3.55,92.61,10.65v49.08
		c-19.45-15.74-39.36-27.7-59.74-35.89c-20.38-8.18-39.98-12.27-58.81-12.27c-25,0-47.08,6.02-66.22,18.06
		c-19.14,12.04-34.19,30.49-45.15,55.34c-10.96,24.85-16.44,55.49-16.44,91.92c0,31.49,6.63,58.81,19.91,81.96
		c13.27,23.15,30.95,40.83,53.02,53.02c22.07,12.2,45.92,18.29,71.54,18.29c24.38,0,47.7-5.71,69.92-17.13v-56.96
		c0-21.6-1.16-38.51-3.47-50.71c-2.32-12.19-7.49-25.39-15.51-39.59h51.86v154.2c-37.36,13.89-74.4,20.84-111.13,20.84
		C2994.9,2343.87,2965.57,2338.01,2939.64,2326.28z"/>
	<linearGradient id="SVGID_13_" gradientUnits="userSpaceOnUse" x1="2202.2102" y1="398.7751" x2="3618.877" y2="2661.2751">
		<stop  offset="0" style="stop-color:#656565"/>
		<stop  offset="0.0691" style="stop-color:#979797"/>
		<stop  offset="0.2846" style="stop-color:#656565"/>
		<stop  offset="0.41" style="stop-color:#979797"/>
		<stop  offset="0.5675" style="stop-color:#A9A9A9"/>
		<stop  offset="0.6961" style="stop-color:#979797"/>
		<stop  offset="0.7797" style="stop-color:#A3A2A2"/>
		<stop  offset="0.9871" style="stop-color:#656565"/>
	</linearGradient>
	<path class="st12" d="M3202.65,2338.78h-8.33V2027.6l-8.8-13.89h44.92l197.73,304.23v-304.23h7.87v325.07h-37.97l-195.41-298.21
		V2338.78z"/>
</g>
</svg>
